<?xml version="1.0"?>
<svg xmlns="http://www.w3.org/2000/svg" xmlns:xlink="http://www.w3.org/1999/xlink" version="1.1" id="Capa_1" x="0px" y="0px" viewBox="0 0 512 512" style="enable-background:new 0 0 512 512;" xml:space="preserve" width="512px" height="512px" class=""><g><path style="fill:#0CAFFF" d="M397.648,134.245l108.485,107.694c7.823,7.766,7.823,20.357,0,28.123L397.648,377.755  c-78.23,77.659-205.065,77.659-283.295,0L5.867,270.061c-7.823-7.766-7.823-20.357,0-28.123l108.485-107.694  C192.582,56.585,319.418,56.585,397.648,134.245z" data-original="#7CC3AC" class="" data-old_color="#7CC3AC"/><path style="fill:#90BDFF" d="M511.72,259.198c-0.65,3.977-2.499,7.797-5.588,10.863L397.648,377.756  c-78.23,77.659-205.065,77.659-283.295,0L5.867,270.061c-3.088-3.066-4.938-6.886-5.588-10.863  c70.522,31.637,159.284,50.494,255.72,50.494S441.199,290.836,511.72,259.198z" data-original="#61AE9F" class="active-path" data-old_color="#61AE9F"/><path style="fill:#A2DAC2;" d="M361.647,255.483c0,57.637-47.067,104.36-105.127,104.36s-105.127-46.724-105.127-104.36  s47.067-104.36,105.127-104.36S361.647,197.847,361.647,255.483z" data-original="#A2DAC2" class=""/><path style="fill:#B1EAD4;" d="M338.147,255.483c0,53.693-40.849,97.908-93.377,103.708c-52.529-5.8-93.377-50.015-93.377-103.708  s40.849-97.908,93.377-103.708C297.299,157.576,338.147,201.791,338.147,255.483z" data-original="#B1EAD4" class=""/><path style="fill:#FFB05F;" d="M370.974,270.977c2.587,0.35,4.388,2.761,3.936,5.313c-9.971,56.294-59.68,98.996-119.354,98.532  c-64.364-0.501-118.747-54.487-119.251-118.382c-0.468-59.239,42.548-108.585,99.256-118.483c2.571-0.449,4.999,1.34,5.352,3.907  l15.607,113.619L370.974,270.977z" data-original="#FFB05F" class=""/><path style="fill:#F53737;" d="M171.97,339.438l84.55-83.955l114.453,15.493c2.588,0.35,4.389,2.764,3.936,5.317  c-9.919,55.988-59.146,98.531-118.389,98.531C223.323,374.826,193.725,361.035,171.97,339.438z" data-original="#F53737" class=""/><path style="fill:#DB3131;" d="M374.909,276.294c-9.919,55.988-59.146,98.531-118.389,98.531c-6.397,0-12.658-0.517-18.758-1.499  c56.731-8.277,102.436-50.196,115.894-104.694l17.316,2.344C373.561,271.327,375.362,273.74,374.909,276.294z" data-original="#DB3131" class=""/><path style="fill:#43545C;" d="M300.109,255.483c0,23.898-19.515,43.271-43.589,43.271c-24.073,0-43.589-19.373-43.589-43.271  s19.515-43.271,43.589-43.271C280.594,212.213,300.109,231.586,300.109,255.483z" data-original="#43545C" class=""/><path style="fill:#FFFFFF;" d="M223.623,198.227c-5.243,2.925-10.082,6.573-14.38,10.841  c-17.908,17.777-24.031,44.592-15.597,68.314c1.381,3.884-0.671,8.144-4.583,9.514c-0.826,0.291-1.67,0.427-2.5,0.427  c-3.096,0-5.995-1.915-7.083-4.978c-10.348-29.106-2.835-62.009,19.14-83.825c5.269-5.229,11.205-9.703,17.643-13.296  c3.617-2.018,8.196-0.744,10.229,2.847C228.523,191.662,227.24,196.209,223.623,198.227z" data-original="#FFFFFF" class=""/></g> </svg>
